trial_1_US.mot
nRows=121
nColumns=2

name trial_1_US.mot
datacolumns 2
datarows 121
range 2.390000 3.590000
endheader
time	med_gas_l
        2.3900000000	       77.9461895340	
        2.4000000000	       75.0386577802	
        2.4100000000	       73.0626292777	
        2.4200000000	       71.5652684879	
        2.4300000000	       71.3245675038	
        2.4400000000	       71.8790437331	
        2.4500000000	       70.7733416800	
        2.4600000000	       70.2309210896	
        2.4700000000	       73.6174932452	
        2.4800000000	       76.3817346097	
        2.4900000000	       76.2647338735	
        2.5000000000	       77.3359878515	
        2.5100000000	       80.2765345431	
        2.5200000000	       82.9446903109	
        2.5300000000	       82.1498700870	
        2.5400000000	       78.0150916418	
        2.5500000000	       75.7885852443	
        2.5600000000	       76.2676982644	
        2.5700000000	       77.2838341148	
        2.5800000000	       77.5017513531	
        2.5900000000	       77.7265388045	
        2.6000000000	       81.2355821946	
        2.6100000000	       85.5856028022	
        2.6200000000	       86.2311107742	
        2.6300000000	       85.5483125028	
        2.6400000000	       85.7978242451	
        2.6500000000	       86.3608092759	
        2.6600000000	       86.5882667671	
        2.6700000000	       86.2025503727	
        2.6800000000	       85.8410232604	
        2.6900000000	       85.9384017483	
        2.7000000000	       86.2622154038	
        2.7100000000	       86.5614055186	
        2.7200000000	       86.6554756301	
        2.7300000000	       86.5478783027	
        2.7400000000	       86.4173613679	
        2.7500000000	       86.6012089299	
        2.7600000000	       86.9553974975	
        2.7700000000	       87.0680383836	
        2.7800000000	       86.7424655359	
        2.7900000000	       86.1505723688	
        2.8000000000	       85.9041501980	
        2.8100000000	       86.0998202411	
        2.8200000000	       86.4353056136	
        2.8300000000	       86.4506135642	
        2.8400000000	       86.0125110749	
        2.8500000000	       85.5304999570	
        2.8600000000	       85.1734319447	
        2.8700000000	       84.9412944915	
        2.8800000000	       84.8997910546	
        2.8900000000	       84.9671148420	
        2.9000000000	       84.8427972394	
        2.9100000000	       84.6427921543	
        2.9200000000	       84.6408326178	
        2.9300000000	       84.6198288708	
        2.9400000000	       84.5315089098	
        2.9500000000	       84.7482555503	
        2.9600000000	       85.2755597082	
        2.9700000000	       85.7979814064	
        2.9800000000	       85.7685999237	
        2.9900000000	       85.1008747156	
        3.0000000000	       84.4760993326	
        3.0100000000	       84.2133377950	
        3.0200000000	       84.3321420780	
        3.0300000000	       84.7617028577	
        3.0400000000	       85.3409988131	
        3.0500000000	       85.7702963228	
        3.0600000000	       85.3726650804	
        3.0700000000	       83.7210623267	
        3.0800000000	       82.3152364224	
        3.0900000000	       82.0354011982	
        3.1000000000	       81.9329472377	
        3.1100000000	       79.5953701556	
        3.1200000000	       73.3794507297	
        3.1300000000	       68.0449498298	
        3.1400000000	       66.5528981095	
        3.1500000000	       66.6239068773	
        3.1600000000	       66.1776933931	
        3.1700000000	       64.2221164080	
        3.1800000000	       62.4106280956	
        3.1900000000	       61.6006775197	
        3.2000000000	       60.5447130423	
        3.2100000000	       59.6682350722	
        3.2200000000	       60.3521958815	
        3.2300000000	       62.9789228745	
        3.2400000000	       66.4809107706	
        3.2500000000	       68.2734435327	
        3.2600000000	       69.5995156851	
        3.2700000000	       72.8517298996	
        3.2800000000	       74.8359710142	
        3.2900000000	       74.7084200446	
        3.3000000000	       76.9501793386	
        3.3100000000	       80.4554099878	
        3.3200000000	       81.6007296147	
        3.3300000000	       82.3126435133	
        3.3400000000	       84.0843564615	
        3.3500000000	       85.6875309759	
        3.3600000000	       87.2514605731	
        3.3700000000	       89.6340012118	
        3.3800000000	       92.4666791975	
        3.3900000000	       93.9062986353	
        3.4000000000	       90.9059375789	
        3.4100000000	       87.3280199635	
        3.4200000000	       88.8338751082	
        3.4300000000	       90.2046328082	
        3.4400000000	       88.3168851225	
        3.4500000000	       87.2320369540	
        3.4600000000	       87.7060272263	
        3.4700000000	       88.2878556996	
        3.4800000000	       88.8574992134	
        3.4900000000	       89.6715351248	
        3.5000000000	       90.9553728983	
        3.5100000000	       91.9752664283	
        3.5200000000	       91.8194931729	
        3.5300000000	       91.3301998828	
        3.5400000000	       91.1580889977	
        3.5500000000	       90.9461674286	
        3.5600000000	       89.9828757197	
        3.5700000000	       88.2307771499	
        3.5800000000	       88.9543263424	
        3.5900000000	       90.9764999268	
